<?xml version="1.0" encoding="utf-8"?>
<!-- Generator: Adobe Illustrator 28.1.0, SVG Export Plug-In . SVG Version: 6.00 Build 0)  -->
<svg version="1.1" id="Laag_1" xmlns="http://www.w3.org/2000/svg" xmlns:xlink="http://www.w3.org/1999/xlink" x="0px" y="0px"
	 viewBox="0 0 240 240" style="enable-background:new 0 0 240 240;" xml:space="preserve">
<style type="text/css">
	.st0{fill:#330000;}
	.st1{fill:#FF9A00;}
</style>
<path class="st0" d="M40.4-0.2h159.1c24.1,0,43.6,19.5,43.6,43.6v153c0,24.1-19.5,43.6-43.6,43.6H40.4c-24.1,0-43.6-19.5-43.6-43.6
	v-153C-3.2,19.3,16.3-0.2,40.4-0.2z"/>
<path class="st1" d="M115.9,143.5H77.7l-7.8,24.1c-0.2,0.9-1,1.5-2,1.4H48.7c-1.1,0-1.4-0.6-1.1-1.8l33.1-95.2c0.3-1,0.6-2.2,1-3.4
	c0.4-2.2,0.6-4.4,0.6-6.7c-0.1-0.5,0.3-1,0.8-1.1h26.6c0.8,0,1.2,0.3,1.3,0.8l37.5,105.7c0.3,1.1,0,1.6-1,1.6H126
	c-0.7,0.1-1.4-0.4-1.6-1.1L115.9,143.5z M83.7,122.7h26.1c-0.6-2.2-1.4-4.7-2.4-7.4c-0.9-2.8-1.8-5.7-2.8-8.8c-1-3.2-2-6.3-3-9.4
	c-1-3.2-2-6.2-2.8-9.1c-0.8-2.9-1.5-5.5-2.3-8h-0.2c-0.9,4.4-2.1,8.8-3.5,13.2c-1.5,4.9-3.1,10.1-4.7,15.2
	C86.7,113.5,85.2,118.4,83.7,122.7z M171.3,78.8c-3.4,0.1-6.7-1.2-9.1-3.6c-2.4-2.6-3.6-6-3.5-9.4c-0.1-3.5,1.2-6.8,3.7-9.1
	s5.7-3.6,9.1-3.6c4,0,7.1,1.2,9.3,3.6c2.3,2.5,3.5,5.7,3.4,9.1c0.1,3.5-1.1,6.9-3.6,9.4C178.3,77.7,174.8,79,171.3,78.8L171.3,78.8z
	 M159.8,167.9v-79c0-1,0.4-1.4,1.3-1.4h20.3c0.9,0,1.3,0.5,1.3,1.4v79c0,1.1-0.4,1.6-1.3,1.6h-20.1
	C160.3,169.6,159.8,169,159.8,167.9z"/>
</svg>
