<?xml version="1.0" encoding="utf-8"?>
<!-- Generator: Adobe Illustrator 28.1.0, SVG Export Plug-In . SVG Version: 6.00 Build 0)  -->
<svg version="1.1" id="Laag_1" xmlns="http://www.w3.org/2000/svg" xmlns:xlink="http://www.w3.org/1999/xlink" x="0px" y="0px"
	 viewBox="0 0 240 240" style="enable-background:new 0 0 240 240;" xml:space="preserve">
<style type="text/css">
	.st0{fill:#264DE4;}
	.st1{fill:#2965F1;}
	.st2{fill:#EBEBEB;}
	.st3{fill:#FFFFFF;}
</style>
<rect class="st0" width="240" height="240"/>
<g id="layer1" transform="translate(-193.633,-276.3622)">
	<g id="g3013" transform="translate(119,276.3622)">
		<polygon id="polygon2989" class="st0" points="290.7,19.5 273.2,215.5 194.5,237.3 116.1,215.5 98.6,19.5 		"/>
		<polygon id="polygon2991" class="st1" points="258.2,203 273.1,35.5 194.6,35.5 194.6,220.6 		"/>
		<polygon id="polygon2993" class="st2" points="138.7,108.2 140.8,132.2 194.6,132.2 194.6,108.2 		"/>
		<polygon id="polygon2995" class="st2" points="194.6,59.5 194.5,59.5 134.3,59.5 136.5,83.6 194.6,83.6 		"/>
		<polygon id="polygon2997" class="st2" points="194.6,195.7 194.6,170.6 194.5,170.7 167.8,163.4 166,144.3 153,144.3 141.9,144.3 
			145.3,182 194.5,195.7 		"/>
		<polygon id="polygon3005" class="st3" points="224.2,132.2 221.4,163.4 194.5,170.7 194.5,195.7 243.8,182 244.2,178 249.8,114.7 
			250.4,108.2 254.8,59.5 194.5,59.5 194.5,83.6 228.4,83.6 226.2,108.2 194.5,108.2 194.5,132.2 		"/>
	</g>
</g>
</svg>
