<?xml version="1.0" encoding="utf-8"?>
<!-- Generator: Adobe Illustrator 28.1.0, SVG Export Plug-In . SVG Version: 6.00 Build 0)  -->
<svg version="1.1" id="Laag_1" xmlns="http://www.w3.org/2000/svg" xmlns:xlink="http://www.w3.org/1999/xlink" x="0px" y="0px"
	 viewBox="0 0 240 240" style="enable-background:new 0 0 240 240;" xml:space="preserve">
<style type="text/css">
	.st0{fill:#264DE4;}
	.st1{fill:#2965F1;}
	.st2{fill:#EBEBEB;}
	.st3{fill:#FFFFFF;}
</style>
<g id="layer1" transform="translate(-193.633,-276.3622)">
	<g id="g3013" transform="translate(119,276.3622)">
		<polygon id="polygon2989" class="st0" points="511.7,-237.2 453.9,410 194.2,482 -64.7,410.1 -122.4,-237.2 		"/>
		<polygon id="polygon2991" class="st1" points="258.9,197.8 274,28.6 194.6,28.6 194.6,215.6 		"/>
		<polygon id="polygon2993" class="st2" points="138.1,102 140.3,126.3 194.6,126.3 194.6,102 		"/>
		<polygon id="polygon2995" class="st2" points="194.6,52.9 194.5,52.9 133.7,52.9 135.9,77.2 194.6,77.2 		"/>
		<polygon id="polygon2997" class="st2" points="194.6,190.4 194.6,165.1 194.5,165.2 167.5,157.9 165.7,138.5 152.6,138.5 
			141.3,138.5 144.8,176.6 194.5,190.5 		"/>
		<polygon id="polygon3005" class="st3" points="224.5,126.3 221.6,157.9 194.5,165.2 194.5,190.4 244.4,176.6 244.7,172.5 
			250.4,108.6 251,102 255.4,52.9 194.5,52.9 194.5,77.2 228.8,77.2 226.6,102 194.5,102 194.5,126.3 		"/>
	</g>
</g>
</svg>
