<?xml version="1.0" encoding="utf-8"?>
<!-- Generator: Adobe Illustrator 28.1.0, SVG Export Plug-In . SVG Version: 6.00 Build 0)  -->
<svg version="1.1" id="Laag_1" xmlns="http://www.w3.org/2000/svg" xmlns:xlink="http://www.w3.org/1999/xlink" x="0px" y="0px"
	 viewBox="0 0 72 72" style="enable-background:new 0 0 72 72;" xml:space="preserve">
<style type="text/css">
	.st0{fill:url(#SVGID_1_);}
</style>
<linearGradient id="SVGID_1_" gradientUnits="userSpaceOnUse" x1="20.4184" y1="63.0097" x2="51.6037" y2="8.9951">
	<stop  offset="0" style="stop-color:#DAA520"/>
	<stop  offset="0.2494" style="stop-color:#715715"/>
	<stop  offset="0.5" style="stop-color:#DAA520"/>
	<stop  offset="0.75" style="stop-color:#715715"/>
	<stop  offset="1" style="stop-color:#DAA520"/>
</linearGradient>
<path class="st0" d="M61.1,36c-1.3,1.1-2.6,2.1-3.9,3.2c-3.9,3.4-7.3,7.3-10.3,11.5c-4.6,6.4-8,13.4-10.7,20.8
	c-0.1,0.1-0.1,0.3-0.2,0.4c0,0,0,0-0.1,0.1c-0.3-0.7-0.5-1.4-0.8-2.1c-2.9-7.6-6.7-14.8-11.7-21.3c-3.6-4.7-7.7-8.9-12.4-12.4
	c-0.1-0.1-0.2-0.1-0.2-0.2C23.2,26.8,30.8,14.3,36,0C41.2,14.2,48.8,26.8,61.1,36z"/>
</svg>
