<?xml version="1.0" encoding="utf-8"?>
<!-- Generator: Adobe Illustrator 28.1.0, SVG Export Plug-In . SVG Version: 6.00 Build 0)  -->
<svg version="1.1" id="Laag_1" xmlns="http://www.w3.org/2000/svg" xmlns:xlink="http://www.w3.org/1999/xlink" x="0px" y="0px"
	 viewBox="0 0 72 72" style="enable-background:new 0 0 72 72;" xml:space="preserve">
<g>
	<path d="M60.7,13.1C56.1,11,51.1,9.4,46,8.5c-0.6,1.1-1.4,2.7-1.9,3.9c-5.5-0.8-10.9-0.8-16.2,0c-0.5-1.2-1.3-2.8-1.9-3.9
		c-5.1,0.9-10.1,2.5-14.7,4.6C2,27.1-0.5,40.8,0.8,54.3c6.2,4.6,12.1,7.4,18,9.2c1.4-2,2.7-4.1,3.8-6.3c-2.1-0.8-4.1-1.8-6.1-3
		c0.5-0.4,1-0.8,1.5-1.2c11.7,5.5,24.4,5.5,35.9,0c0.5,0.4,1,0.8,1.5,1.2c-1.9,1.2-4,2.2-6.1,3c1.1,2.2,2.4,4.3,3.8,6.3
		c5.9-1.8,11.8-4.6,18-9.2C72.7,38.7,68.7,25.1,60.7,13.1z M24.2,46c-3.5,0-6.4-3.3-6.4-7.3s2.8-7.3,6.4-7.3c3.6,0,6.4,3.3,6.4,7.3
		C30.6,42.7,27.8,46,24.2,46z M47.8,46c-3.5,0-6.4-3.3-6.4-7.3s2.8-7.3,6.4-7.3c3.6,0,6.4,3.3,6.4,7.3C54.2,42.7,51.4,46,47.8,46z"
		/>
</g>
</svg>
