<?xml version="1.0" encoding="utf-8"?>
<!-- Generator: Adobe Illustrator 28.1.0, SVG Export Plug-In . SVG Version: 6.00 Build 0)  -->
<svg version="1.1" id="Laag_1" xmlns="http://www.w3.org/2000/svg" xmlns:xlink="http://www.w3.org/1999/xlink" x="0px" y="0px"
	 viewBox="0 0 240 240" style="enable-background:new 0 0 240 240;" xml:space="preserve">
<style type="text/css">
	.st0{fill:url(#SVGID_1_);}
	.st1{fill:#0ACF83;}
	.st2{fill:#A259FF;}
	.st3{fill:#F24E1E;}
	.st4{fill:#FF7262;}
	.st5{fill:#1ABCFE;}
</style>
<g id="Layer_2_1_">
	<g id="Surfaces">
		<g id="Photo_Surface">
			<g id="Outline_no_shadow">
				<linearGradient id="SVGID_1_" gradientUnits="userSpaceOnUse" x1="120" y1="161.3659" x2="120" y2="19.6194">
					<stop  offset="0" style="stop-color:#1D1D1B"/>
					<stop  offset="1" style="stop-color:#343333"/>
				</linearGradient>
				<path class="st0" d="M42.5,2.9h155c23.5,0,42.5,19,42.5,42.5v149c0,23.5-19,42.5-42.5,42.5h-155C19,236.9,0,217.9,0,194.4v-149
					C0,21.9,19,2.9,42.5,2.9z"/>
			</g>
		</g>
	</g>
</g>
<path class="st1" d="M95.7,192.9c13.4,0,24.3-10.9,24.3-24.3v-24.3H95.7c-13.4,0-24.3,10.9-24.3,24.3
	C71.3,182,82.2,192.9,95.7,192.9z"/>
<path class="st2" d="M71.3,119.9c0-13.4,10.9-24.3,24.3-24.3H120v48.7H95.7C82.2,144.2,71.3,133.3,71.3,119.9z"/>
<path class="st3" d="M71.3,71.2c0-13.4,10.9-24.3,24.3-24.3H120v48.7H95.7C82.2,95.6,71.3,84.7,71.3,71.2z"/>
<path class="st4" d="M120,46.9h24.3c13.4,0,24.3,10.9,24.3,24.3c0,13.4-10.9,24.3-24.3,24.3H120V46.9z"/>
<path class="st5" d="M168.7,119.9c0,13.4-10.9,24.3-24.3,24.3c-13.4,0-24.3-10.9-24.3-24.3c0-13.4,10.9-24.3,24.3-24.3
	C157.8,95.6,168.7,106.5,168.7,119.9z"/>
</svg>
