<?xml version="1.0" encoding="utf-8"?>
<!-- Generator: Adobe Illustrator 28.1.0, SVG Export Plug-In . SVG Version: 6.00 Build 0)  -->
<svg version="1.1" id="Laag_1" xmlns="http://www.w3.org/2000/svg" xmlns:xlink="http://www.w3.org/1999/xlink" x="0px" y="0px"
	 viewBox="0 0 72 72" style="enable-background:new 0 0 72 72;" xml:space="preserve">
<g transform="translate(0.000000,240.000000) scale(0.100000,-0.100000)">
	<path d="M287.9,2394.5c-95.6-21.3-174-74.3-228-154.6c-94.4-141.4-75.6-331.2,44.8-452.2c36.1-36.4,90.9-71.5,132.3-85
		c15.4-5,17.2-5,24.1-0.3c7.5,5,7.8,6.3,7.8,42.3v37l-27.6-1.6c-32.3-1.6-57.4,4.1-72.4,16.9c-5.3,4.4-15.7,19.4-22.9,33.2
		c-11.9,23.2-20.7,33.9-45.2,55.5c-8.2,7.2-8.5,7.5-2.8,11.6c13.5,10,40.8,0.3,58-20.4c30.1-36.7,41.7-46.4,59-50.2
		c15.4-3.1,29.5-1.9,50.8,4.4c2.8,0.9,6.6,7.5,8.5,15.1c1.9,7.2,6.9,18.2,11,24.1l7.5,11l-25.4,5c-53.3,11-86.2,30.1-107.9,62.7
		c-20.1,30.1-26.7,56.1-27,104.7c0,45.8,5,64.6,24.8,90.3c8.8,11.3,9.7,14.7,7.2,21.3c-4.7,11.3-3.4,59,1.6,73.4
		c4.1,10.7,6.3,12.5,14.7,13.5c14.1,1.6,40.5-7.5,67.1-22.6l22.9-13.2l20.1,4.7c28.5,6.6,114.1,6.3,139.9,0l19.4-5l18.2,11
		c24.1,14.4,54.9,25.7,70.2,25.7c12.2,0,12.2-0.3,17.2-16.3c5.3-18.5,6.3-52.1,1.6-68c-2.5-9.4-1.9-12.2,5-21.3
		c34.2-45.2,37.9-120.1,9.1-181.6c-19.4-40.5-60.5-68.7-115.7-79l-26.3-5l9.7-17.2l10-17.6l0.9-69.9l1.3-69.9l7.8-5
		c7.2-4.7,8.8-4.7,23.8,0.6c25.1,8.5,68,31.7,91.6,49.5c139.9,104.7,185,292.6,107.6,448.7c-45.5,91.9-131.4,162.4-229.9,188.8
		C409.5,2401.1,328.6,2403.6,287.9,2394.5z"/>
</g>
</svg>
