<?xml version="1.0" encoding="utf-8"?>
<!-- Generator: Adobe Illustrator 28.1.0, SVG Export Plug-In . SVG Version: 6.00 Build 0)  -->
<svg version="1.1" id="Laag_1" xmlns="http://www.w3.org/2000/svg" xmlns:xlink="http://www.w3.org/1999/xlink" x="0px" y="0px"
	 viewBox="0 0 72 72" style="enable-background:new 0 0 72 72;" xml:space="preserve">
<style type="text/css">
	.st0{fill:#DAA520;}
	.st1{fill:#FFFFFF;}
</style>
<circle class="st0" cx="36" cy="36" r="35.5"/>
<g>
	<path class="st1" d="M51.1,22c-2.8-1.3-5.9-2.3-9-2.8c-0.4,0.7-0.9,1.7-1.2,2.4c-3.4-0.5-6.7-0.5-9.9,0c-0.3-0.7-0.8-1.7-1.2-2.4
		c-3.1,0.6-6.2,1.5-9,2.8c-5.7,8.6-7.2,17-6.4,25.2c3.8,2.8,7.4,4.5,11,5.6c0.9-1.2,1.7-2.5,2.3-3.9c-1.3-0.5-2.5-1.1-3.7-1.8
		c0.3-0.2,0.6-0.5,0.9-0.7c7.2,3.4,14.9,3.4,22,0c0.3,0.2,0.6,0.5,0.9,0.7c-1.2,0.7-2.4,1.3-3.7,1.8c0.7,1.3,1.5,2.6,2.3,3.9
		c3.6-1.1,7.2-2.8,11-5.6C58.5,37.7,56,29.3,51.1,22z M28.8,42.1c-2.1,0-3.9-2-3.9-4.5c0-2.4,1.7-4.5,3.9-4.5s3.9,2,3.9,4.5
		C32.7,40.1,31,42.1,28.8,42.1z M43.2,42.1c-2.1,0-3.9-2-3.9-4.5c0-2.4,1.7-4.5,3.9-4.5s3.9,2,3.9,4.5
		C47.2,40.1,45.4,42.1,43.2,42.1z"/>
</g>
</svg>
