<?xml version="1.0" encoding="utf-8"?>
<!-- Generator: Adobe Illustrator 28.1.0, SVG Export Plug-In . SVG Version: 6.00 Build 0)  -->
<svg version="1.1" id="Laag_1" xmlns="http://www.w3.org/2000/svg" xmlns:xlink="http://www.w3.org/1999/xlink" x="0px" y="0px"
	 viewBox="0 0 72 72" style="enable-background:new 0 0 72 72;" xml:space="preserve">
<style type="text/css">
	.st0{fill:#DAA621;}
	.st1{fill:#FFFFFF;}
</style>
<path class="st0" d="M35.9,72.3c19.8,0,36-16,36-35.8c0-19.9-16-36.1-35.9-36.1C16.1,0.2-0.1,16.3-0.1,36.2
	C-0.1,56.1,16,72.2,35.9,72.3z"/>
<path class="st1" d="M39.6,31.8c2.9-3.8,6.5-4.5,10.4-3.3c4.1,1.2,5.8,4.5,6,8.5c0.3,5,0.1,10.1,0.1,15.1c0,0.3-0.6,1-1,1
	c-2,0.1-4,0-6,0.1c-1.1,0-1.1-0.6-1.1-1.4c0-3.7,0-7.4,0-11.1c0-0.8,0-1.5-0.2-2.3c-0.4-2.7-1.9-4-4.3-3.8c-2.3,0.2-4.1,1.9-4.1,4.4
	c-0.1,3.7,0,7.5,0,11.2c0,3.4,0.4,2.9-2.9,3c-1.2,0-2.5-0.1-3.7,0c-1.2,0.1-1.6-0.4-1.6-1.6c0.1-4.6,0.1-9.2,0.1-13.9
	c0-2.5,0-5-0.1-7.5c0-1.1,0.3-1.6,1.5-1.5c1.6,0.1,3.2,0.1,4.8,0c1.6-0.1,2.2,0.4,1.9,2C39.5,30.9,39.6,31.2,39.6,31.8z"/>
<path class="st1" d="M26.9,40.9c0,3.5,0,7.1,0,10.6c0,1.2-0.3,1.7-1.5,1.6c-1.7-0.1-3.5-0.1-5.2,0c-1,0-1.5-0.3-1.5-1.4
	c0-7.3,0-14.5,0-21.8c0-1,0.4-1.4,1.4-1.3c1.8,0,3.6,0.1,5.4,0c1.2,0,1.5,0.5,1.5,1.6C26.9,33.7,26.9,37.3,26.9,40.9z"/>
<path class="st1" d="M26.9,21.1c0,2.4-2,4.3-4.5,4.3c-2.4-0.1-4.2-2-4.2-4.4c0-2.4,2-4.4,4.5-4.3C25.1,16.8,27,18.8,26.9,21.1z"/>
</svg>
