<?xml version="1.0" encoding="utf-8"?>
<!-- Generator: Adobe Illustrator 28.1.0, SVG Export Plug-In . SVG Version: 6.00 Build 0)  -->
<svg version="1.1" id="Laag_1" xmlns="http://www.w3.org/2000/svg" xmlns:xlink="http://www.w3.org/1999/xlink" x="0px" y="0px"
	 viewBox="0 0 240 240" style="enable-background:new 0 0 240 240;" xml:space="preserve">
<style type="text/css">
	.st0{fill:#F7DF1E;}
</style>
<g>
	<rect class="st0" width="240" height="240"/>
	<path d="M161.2,187.5c4.8,7.9,11.1,13.7,22.2,13.7c9.3,0,15.3-4.7,15.3-11.1c0-7.7-6.1-10.5-16.4-15l-5.6-2.4
		c-16.3-6.9-27.1-15.6-27.1-34c0-16.9,12.9-29.8,33-29.8c14.3,0,24.6,5,32.1,18.1l-17.6,11.3c-3.9-6.9-8-9.7-14.5-9.7
		c-6.6,0-10.8,4.2-10.8,9.7c0,6.8,4.2,9.5,13.9,13.7l5.6,2.4c19.2,8.2,30,16.6,30,35.4c0,20.3-16,31.4-37.4,31.4
		c-20.9,0-34.5-10-41.1-23.1L161.2,187.5z M81.6,189.5c3.5,6.3,6.8,11.6,14.5,11.6c7.4,0,12.1-2.9,12.1-14.2v-76.7h22.6v77
		c0,23.4-13.7,34-33.7,34c-18.1,0-28.5-9.3-33.8-20.6L81.6,189.5z"/>
</g>
</svg>
