<?xml version="1.0" encoding="utf-8"?>
<!-- Generator: Adobe Illustrator 28.1.0, SVG Export Plug-In . SVG Version: 6.00 Build 0)  -->
<svg version="1.1" id="Laag_1" xmlns="http://www.w3.org/2000/svg" xmlns:xlink="http://www.w3.org/1999/xlink" x="0px" y="0px"
	 viewBox="0 0 512 472" style="enable-background:new 0 0 512 472;" xml:space="preserve">
<style type="text/css">
	.st0{fill:#474747;}
</style>
<g>
	<g id="_x30_lqAQb_00000147921427090397929430000008228142041259224746_">
		<g>
			<path class="st0" d="M256,9.8c2.7,5.5,5.1,10.4,7.7,15.8c-5.3,0-10.2,0-15.7,0C250.5,20.5,253.1,15.4,256,9.8z"/>
			<path class="st0" d="M278.1,174.5c8.6-0.2,17.4,4.2,25.9-1.3c-1.7-2.6-3.7-2.4-5.8-0.9c-3.6,2.6-7.5,2.6-11.3,0.7
				c-4.6-2.4-9.1-3.6-14,0.1c-1.5-2.6-3.1-4.7-4.1-7.1c-1.4-3.3-0.9-6.5,2.1-8.9c12.8-10.1,33.9-6,41.6,8.1c0.3,0.6,0.5,1.3,0.1,2.6
				c-2.9-2.6-5.8-5.2-8.5-7.9c-6-6-10.7-6.4-17.5-1.3c-2.7,2-5.1,4.3-7.7,6.5c0.2,0.3,0.4,0.6,0.6,0.9c1.2-0.5,2.5-1,3.7-1.6
				c6.7-3.3,13.2-3,19.8,0.3c4.1,2.1,8.6,3.6,13.1,5c0.8,1.1-1.9,4.3,2.9,3.8c-0.1,0.4-0.1,0.8-0.2,1.2c-2.2,0.7-4.4,1.5-6.6,2
				c-3.2,0.7-6.5,0.7-9.6,1.6C293.9,180.8,286,178.6,278.1,174.5z"/>
			<path class="st0" d="M205.1,173c8.5,6.1,17.4,1.5,26.1,1.6c-8.5,4.4-17.1,7.1-26.7,2.8c-1.7-0.8-3.8-1.2-5.6-1
				c-6,0.6-7.3-0.7-6.1-5.8c6.1-2.6,11.8-5,17.4-7.5c4.9-2.2,9.8-1.7,14.7-0.2c1.8,0.6,3.7,1.2,5.8,2c-5.4-10.6-16.7-12.6-24.7-4.8
				c-2.7,2.6-5.5,5.1-8.5,7.3c6.5-15.8,28.8-21.1,41.7-10.1c1.6,1.4,2.5,4.6,2.4,6.9c-0.1,2.8-1.6,5.5-2.7,8.8
				c-6-3.9-11.4-2.7-17,0.3c-3.7,2-7.4,1.5-10.8-1.1C209,170.6,207,170.5,205.1,173z"/>
			<path class="st0" d="M320.8,164c-1.7-3.4-3.3-6.9-5.1-10.2c-5-8.9-11.3-11.4-20.9-8.3c-6.4,2.1-12.7,4.4-19.1,6.6
				c-1.2,0.4-2.5,0.9-3.8,1.2c-3,0.6-6,1.1-7.2-2.7c-1.4-4.1,0.3-8.7,4.1-9.4c10.4-2,20.8-4.2,31.3-4.8c10.6-0.6,19.5,9.5,20.8,21.7
				c0.2,2,0.3,3.9,0.5,5.9C321.1,164,320.9,164,320.8,164z"/>
			<path class="st0" d="M295.7,254.1c-14.8,21.7-65.3,19.5-76.2,3c3.4,1.2,6.2,2.1,8.8,3.2c6,2.5,11.1,1.8,16.8-1.8
				c7.1-4.5,15-3.1,21.9,0.9c4.8,2.8,8.9,3.4,13.8,1.2C285.5,258.4,290.2,256.5,295.7,254.1z"/>
			<path class="st0" d="M189.9,161.6c-0.6-16.2,14-28.5,28.6-25.2c6.2,1.4,12.4,2.7,18.6,4.2c1.9,0.5,3.9,1.1,5.4,2.3
				c2.7,2.1,3.2,5.2,1.9,8.3c-1.4,3.1-4.3,2.8-6.9,2c-7.4-2.4-14.8-5-22.1-7.6c-6.5-2.3-12.3-0.9-17.2,3.8c-2.2,2.2-3.9,5-5.7,7.5
				C191.6,158,191,159.4,189.9,161.6z"/>
			<path class="st0" d="M243,189.2c-2.1,4.3-4.3,8.7-6.2,12.7c3.9-0.5,7.2-0.9,10.4-1.3c0.6-0.1,1.5,0.1,1.9-0.3
				c4.5-3.7,8.7-3,13.6-0.3c2.9,1.6,6.8,1.5,11.4,2.3c-2.3-4.9-4.4-9.3-7-14.8c5.5,5.3,8.7,12.1,8.2,16.6c-0.5,5.2-2.2,6.6-7.2,5.2
				c-4.5-1.3-8,1-11.4,3.1c-0.8,0.5-0.9,2.3-1.2,3.5c-1.9-6.1-5.7-8.4-12.3-6.8c-2.9,0.7-5.4,1.2-7.4-1.7c-2-2.9-1.8-5.7,0-8.5
				c2.2-3.4,4.4-6.7,6.6-10.1C242.5,188.9,242.7,189.1,243,189.2z"/>
			<path class="st0" d="M240.7,244.9c1.3-1.2,2-1.7,3-2.6c-3.4-2.4-6.7-4.6-11-7.6c14.9,0,28.8,0,43.8,0c-4.2,2.9-7.5,5.2-10.8,7.5
				c0.5,0.8,0.9,1.3,1.4,2.1C258.6,248.1,250.1,245.9,240.7,244.9z"/>
			<path class="st0" d="M228,229.4c4.5-2.6,9-5.3,13.7-7.7c1.9-1,4.8-2.1,6.4-1.4c6.6,3,13.6-2.8,20,1.4c3.9,2.6,8.1,5,12,7.9
				c-8.7,1.7-17.5-3.6-26.1-0.1C245.3,225.8,236.7,231.3,228,229.4z"/>
			<path class="st0" d="M232.1,125.8c-7.5,0.4-14.9,0.1-22,1.2c-11.3,1.8-20.1,7.3-22.8,19.5c-0.3,1.4-1.1,2.6-1.8,4
				c-5-5.6-5.6-15.5-1-18.6c1,2.3,2,4.5,3,6.6C197.1,125.6,219.9,119,232.1,125.8z"/>
			<path class="st0" d="M294.4,231.2c14.3-7.5,20.4-21.1,26.1-35c-2,12.3-5.9,23.7-15.6,32c-2.7,2.3-6.6,3.1-9.9,4.7
				C294.8,232.3,294.6,231.7,294.4,231.2z"/>
			<path class="st0" d="M189.2,198.8c6.8,12.9,11.3,27.6,26.8,33.8c-5.3,0.6-9.9-0.8-13.1-4.4C195.4,219.9,190.8,210,189.2,198.8z"
				/>
			<path class="st0" d="M174.9,175.2c-0.9,0.6-1.6,1.2-2.2,1.7c4,7.3,3.1,10.2-4.4,13.9c-2.1-4.8-3.4-9.7-1.1-14.8
				C169.1,171.8,171.1,171.5,174.9,175.2z"/>
			<path class="st0" d="M337.7,174c4.9-0.7,7,0.7,7,5.4c0,3.6-0.8,7.2-1.2,11c-6.6-2-8.3-4.9-6.7-10.8
				C337.3,177.9,337.4,176.1,337.7,174z"/>
			<path class="st0" d="M266,158.2c0.5,6.8,0.9,12.7,1.3,18.6C263.2,173.1,262.4,164.4,266,158.2z"/>
			<path class="st0" d="M243.2,176.7c0.4-5.9,0.7-11.7,1.1-18.1C247.6,164.4,247,172,243.2,176.7z"/>
			<path class="st0" d="M311.3,300.2c2.7-0.4,5.3-1.2,8-1.2c30.5,0,60.8,2.2,91.1,5.5c1.6,0.2,3.1,0.5,5.1,0.9
				c-3.1,4.6-7.2,7.1-12.4,6.9c-7.1-0.2-14.2-1-21.3-1.8c-20.9-2.3-41.8-4.6-62.7-7c-2.6-0.3-5.2-1-7.9-1.5
				C311.3,301.4,311.3,300.8,311.3,300.2z"/>
			<path class="st0" d="M379.5,357c-1.9,11.2-0.9,9.9-11.5,8.9c-17-1.5-34-2.9-51-4.2c-3.3-0.3-5.4-1-5.4-4.9c0-4.6,0.7-5.9,5.4-5.5
				c20.2,1.6,40.3,3.3,60.5,5C378.1,356.2,378.7,356.6,379.5,357z"/>
			<path class="st0" d="M386.9,336.6c-3.7,9.7-3.7,9.8-13.2,9c-19.1-1.6-38.3-3.3-57.4-5c-4.7-0.4-5-1.3-4-9.6
				C337,332.9,361.7,334.8,386.9,336.6z"/>
			<path class="st0" d="M311.8,369.5c21.1,1.5,41.5,3,61.9,4.5c0.9,7.7-1.2,10.3-8.3,9.8c-16.2-1-32.5-2.3-48.7-3.4
				c-3.2-0.2-4.9-1.7-4.8-5C311.8,373.7,311.8,371.9,311.8,369.5z"/>
			<path class="st0" d="M311.9,316.3c2.3-0.4,4.7-1.3,7-1.2c25.9,1.7,51.8,3.5,77.7,5.3c0.3,0,0.7,0.2,1,0.3
				c-4,7.9-5.1,8.7-13.3,7.7c-22.2-2.7-44.4-5.4-66.6-8.3c-2-0.3-3.9-1.2-5.8-1.8C311.9,317.6,311.9,316.9,311.9,316.3z"/>
			<path class="st0" d="M312.1,388c18.8,1.1,37.3,2.3,55.9,3.4c0,8.2-1.8,9.8-9.5,9.3c-13.3-0.9-26.7-1.8-40-2.6
				c-6.7-0.4-6.8-0.3-6.6-7.1C311.9,390.1,312,389.3,312.1,388z"/>
			<path class="st0" d="M360.4,406.8c-1.2,6.3-4,9.5-9,9.5c-12.9,0.2-25.9,0.1-39.1,0.1c0-4.3,0-7.5,0-11.2
				C328.3,405.7,344.2,406.3,360.4,406.8z"/>
			<path class="st0" d="M311.6,421.7c12.3,0,24.4,0,36.5,0c0.2,0.2,0.4,0.5,0.6,0.7c-1.7,1.5-3.1,3.6-5.1,4.2
				c-10.3,3.3-20.9,5.2-32.1,5.8C311.6,428.6,311.6,425.3,311.6,421.7z"/>
			<path class="st0" d="M198.9,302.1c-3.8,0.7-7.5,1.7-11.3,2.1c-25.5,2.7-51.1,5.3-76.6,8.1c-6.7,0.7-12.6,0.1-16.4-6.5
				c17.9-5.2,96.1-8.9,104-4.9C198.8,301.3,198.9,301.7,198.9,302.1z"/>
			<path class="st0" d="M132.1,356.1c22.2-2,44-4,66.3-6c0,2.4,0,4.1,0,5.8c0,1.6,0,3.1,0,5.1c-6.8,0.7-13.3,1.4-19.8,2
				c-12.5,1.2-25,2.3-37.5,3.3c-7.1,0.6-7.5,0.2-8.6-6.8C132.3,358.7,132.3,357.9,132.1,356.1z"/>
			<path class="st0" d="M124.4,336.9c24.8-2,49.3-3.9,73.7-5.8c2.4,7.5,1.1,9.2-6,9.8c-18.3,1.6-36.6,3.3-54.9,5.2
				C127.8,347,127.6,347,124.4,336.9z"/>
			<path class="st0" d="M136.3,374.2c8.9-0.7,17.5-1.4,26-2.1c10.6-0.8,21.1-1.5,31.7-2.5c3.3-0.3,4.5,0.8,4.7,4
				c0.2,3.1,0.6,6.1-3.7,6.4c-8.8,0.8-17.7,1.5-26.5,2.2c-7.7,0.6-15.3,1.2-23,2c-6.4,0.6-6.4,0.7-8.1-5.5
				C137.1,377.5,136.8,376.2,136.3,374.2z"/>
			<path class="st0" d="M113.1,320.6c30.5-4.5,81.2-6.7,86.1-3.2c-1.9,0.8-3.2,1.8-4.7,2c-14.9,2.2-29.9,4.3-44.8,6.4
				c-7.6,1.1-15.2,2-22.9,2.9C119.7,329.7,116,327.5,113.1,320.6z"/>
			<path class="st0" d="M198.1,388c0,3.3,0,6.3,0,9.5c-9.6,0.7-19,1.4-28.5,2.1c-5.9,0.5-11.9,0.9-17.8,1.5c-6,0.6-6.5,0.3-8.4-5.7
				c-0.4-1.2-0.7-2.5-1.1-4.1C161.1,390.2,179.5,389.1,198.1,388z"/>
			<path class="st0" d="M198,405c0,3.9,0,7.1,0,11.3c-8.1,0-16,0-23.9,0c-4,0-7.9,0.2-11.9,0.2c-7,0-9.7-2.1-11.5-9.7
				C166.5,406.2,182.1,405.6,198,405z"/>
			<path class="st0" d="M198.7,421.7c0,3,0.1,5.7-0.1,8.4c-0.1,0.7-1.1,2-1.8,2c-11.9,0.7-23.2-1.3-33-8.6c-0.5-0.4-0.7-1-1.4-1.9
				C174.7,421.7,186.5,421.7,198.7,421.7z"/>
		</g>
	</g>
	<path class="st0" d="M301.7,429.9c-31.6,11.7-61.7,12.2-92-0.2c-0.1,1.6-0.3,2.7-0.3,3.8c0,6.9-0.1,13.8,0,20.7
		c0.1,8.2,0.1,8.2-8.1,7.8c-11.4-0.6-22.7-1.4-34.1-1.7c-16-0.5-29.9-6.2-42.1-16.4c-20.7-17.2-32.1-39.6-37.2-65.7
		c-3.5-18-3.5-35.8,2.4-53.3c0.2-0.7,0.3-1.5,0.6-2.8c-17,2.4-31.7,8.7-44,21.4c-2-9.9-2.6-18.9,3.9-26.9c2.5-3,3.5-6.5,3.1-10.4
		c-0.8-7.6,1.3-14.3,6.2-20.3c1.3-1.5,2-3.8,2.1-5.8c0.3-7.2,2.7-13.7,6.6-19.7c1.7-2.6,2.4-5,1.7-8.2c-1.1-4.7,0.6-8.9,3.3-12.7
		c3.8-5,6.4-10.3,6-16.8c0-0.6,0-1.4,0.4-1.9c7.9-13.3,10.2-28.6,15.3-42.9c8.4-23.7,16.4-47.5,24.9-71.2
		c6.5-18,18.9-30.6,36.5-38.3c15.8-6.9,32-12.4,49.1-15.6c9.8-1.8,19.5-4.8,29.1-7.7c3.6-1.1,6.8-3,6.6-7.8c-0.1-1.1,1-2.5,1.8-3.4
		c1.2-1.3,3-2,2.3-4.4c-0.1-0.5,1.7-2.1,2.7-2.1c4.9-0.3,9.8-0.4,14.7-0.3c0.8,0,2,0.5,2.3,1.2c1.7,3.8,3,7.7,4.7,11.4
		c0.6,1.4,1.5,3,2.7,3.6c3.8,1.8,7.7,3.6,11.7,4.7c16.1,4.3,32.4,7.9,48.4,12.5c12.7,3.7,24.9,9.1,35.7,17
		c8.9,6.4,15.7,14.9,19.7,25c8.3,21.2,16.2,42.5,23.9,63.9c4.8,13.3,8.9,26.9,13.5,40.3c1.1,3.4,3,6.5,4.2,9.8
		c1.3,3.4,2.1,7,3.3,10.5c1.3,3.7,2.5,7.5,4.4,10.9c2.8,5.1,5.5,9.9,3.5,16.1c-0.5,1.5,0.6,3.9,1.6,5.5c4.2,6.6,7.2,13.5,7.2,21.5
		c0,1.9,0.9,3.9,1.9,5.5c3.8,5.9,5.6,12.3,5,19.2c-0.3,3.8,0.9,6.9,3.3,9.8c6.6,8.3,8.2,18.2,4.4,27.6c-11.9-12.7-26.8-18.9-44-21.3
		c1.9,7.1,4,13.6,5.2,20.4c2.8,15.9-0.4,31.4-4.6,46.6c-4.7,16.9-13,31.8-24.8,44.7c-15.5,17-34.7,26.1-57.7,27.3
		c-10.7,0.6-21.4,0.8-32.2,1.4c-3.4,0.2-4.8-1.2-4.7-4.6C301.8,448.7,301.7,439.8,301.7,429.9z M323.5,209.6c0.4,2.2,0.5,3.8,1,5.3
		c0.9,3.4,2.7,6.3,6.5,6.6c3.9,0.2,6.1-2.5,7.1-5.8c3.2-9.7,6.2-19.4,9.2-29.1c1.5-5.1,0.9-10-2.1-14.5c-3-4.5-7.8-4.9-11.4-0.9
		c-1.7,1.9-2.9,4.1-4.5,6c-0.8,0.9-2,1.5-3,2.2c-0.7-1.2-1.5-2.4-2-3.6c-0.3-0.6-0.2-1.3-0.2-2c0-8.3,0.3-16.6-0.1-24.9
		c-0.2-3.2-1.1-7.1-3.1-9.5c-6.5-7.6-14.8-12.5-25-13.2c-6.5-0.5-13.1-0.1-20.8-0.1c9.7-4.2,18.5-3.5,27.2-1.2
		c8.9,2.4,17.3,5.7,21.2,16.1c0.6-2.8,0.7-4.6,1.5-6.1c0.6-1.2,2.1-2,3.2-2.9c0.9,1.3,2.1,2.6,2.6,4c0.4,1-0.2,2.4-0.3,3.6
		c7.4-22,16.8-42.5,36.2-56.6c-4.8-5.5-7.6-5.6-12.7-1.1c-9.4,8.4-15.2,19.2-20.6,30.4c-2,4.2-4,8.4-6.2,12.4
		c-2.1,3.7-5.2,4-7.4,0.4c-1-1.6-1.1-4.4-0.4-6.2c3.1-7.6,6.3-15.2,10.1-22.4c3.2-6,7.3-11.6,11.1-17.3c2.5-3.8,5.9-5.1,10.3-3.9
		c1.3,0.3,2.6,0.4,3.9,0.6c0.1-0.3,0.1-0.7,0.2-1c-6-2.1-12.1-4.1-18.1-6.5c-3.4-1.4-5.4-0.7-6.8,2.8c-2.8,6.7-5.9,13.3-8.8,20
		c-3.7,8.4-7.3,16.7-10.9,25.1c-1.4,3.2-3.6,3.3-6.5,2.1c-2.8-1.2-4.4-2.3-3.2-5.9c2.8-8.1,5.2-16.4,7.9-24.6c2.6-8,5.3-16,8.1-24.2
		c-4.5-1.9-8.6-3.6-12.9-5.4c-1,2.3-1.9,4.4-2.6,6.5c-4,11.4-7.9,22.7-11.9,34.1c-1.6,4.6-3.4,9.2,0.1,14.3
		c-5.7-0.8-10.7-1.5-15.7-2.2c2.3,1.4,4.7,1.9,7.1,2.4c2.3,0.5,4.6,0.9,7,1.3c-0.1,0.3-0.1,0.6-0.2,1c-3.5,0-7.1,0.2-10.6-0.1
		c-3.2-0.2-5,0.9-6.6,3.8c-2.5,4.8-5.2,9.5-8.4,13.9c-4.2,5.8-9.4,5.8-13.6-0.1c-3.2-4.5-5.9-9.4-8.6-14.3c-1.4-2.5-3-3.7-6-3.4
		c-4.5,0.5-9,0.5-13.6,0.8c0-0.3-0.1-0.6-0.1-0.9c5.6-1.3,11.3-2.5,16.9-3.8c-0.1-0.3-0.1-0.6-0.2-0.9c-5.6,0.9-11.2,1.8-17.6,2.9
		c4.6-5.7,3.8-11.1,1.7-16.8c-3.4-9-6.4-18.2-9.7-27.3c-1.3-3.7-2.7-7.4-4.2-11.3c-4.6,2-8.8,3.8-13.1,5.7c0.7,2.2,1.2,3.9,1.8,5.7
		c4.5,13.8,9.1,27.6,13.6,41.5c1.5,4.6,0.7,5.7-3.8,7.4c-3.3,1.2-5.3,0.4-6.4-3c-0.4-1.3-0.9-2.5-1.5-3.7c-6-13.8-12.1-27.6-18-41.5
		c-1.2-2.7-2.6-3.4-5.5-2.3c-5.1,2.1-10.5,3.7-15.7,5.5c-1.5,0.5-2.9,1-4.4,1.6c1.8,0.6,3.5,0.6,4.9,0.1c5.6-2.2,10.3,0.7,13.3,6.5
		c6.6,12.7,12.6,25.7,18.8,38.5c1.5,3.1,0.5,5.4-2.5,6.9c-3,1.4-4.4-0.5-5.6-2.8c-2.3-4.7-4.6-9.5-7-14.3
		c-5.2-10.2-10.9-20-19.8-27.5c-5.9-5-7.5-5-13.4,0.5c0.3,0.3,0.5,0.7,0.8,0.8c11.1,5.9,18.5,15.3,24.3,26
		c8.7,16.2,13,34.1,18.5,51.5c2,6.2,1.6,12.7-1.7,18.9c-0.6-0.3-1-0.4-1.2-0.7c-1.7-2.5-3.3-5.1-5.1-7.5c-3.9-5.3-9.9-4.9-12.6,0.9
		c-1.2,2.7-2,5.8-2.1,8.7c-0.3,13.4,5.6,25.1,10.7,37c1.2,2.8,4,3.2,6.9,2.6c4.5-1,6.1-4,5.8-10.9c-4.8-1-8.6-3.5-10.6-8.5
		c-4.3,5.6,2.9,9,2.5,14.5c-1.4-1.3-2.6-2-3-3c-1.9-4.9-3.7-9.9-5.3-14.9c-0.3-1-0.1-2.6,0.5-3.3c3.2-3.4,6.7-6.7,10.1-10
		c0.5,0.1,1,0.2,1.5,0.3c0.1,2,0.4,4,0.1,5.9c-0.8,4.7-1.8,9.4-2.8,14c0.4,0.1,0.7,0.2,1.1,0.3c0.8-1.7,1.5-3.3,2.7-5.8
		c1.7,3.3,3.2,5.8,4.2,8.5c2.6,6.8,4.8,13.7,7.3,20.6c4.1,11.3,11.1,20.8,19.9,28.7c10,8.9,22.2,12.4,35.3,13.4
		c27.1,2.2,49.2-9.8,60.6-34.4c4.8-10.4,7.8-21.6,11.7-32.5c0.5-1.4,1.1-2.7,1.8-4.6c1,1.9,1.7,3.1,2.5,4.7c2.3-4.5,2.7-8.7,0.9-13
		c-1-2.5-1.3-4.8,2.3-6.8c2.7,2.9,5.2,5.9,8,8.7c2,1.9,2.5,3.8,1.4,6.4c-1.6,3.9-3,7.9-4.6,11.8c-0.5,1.3-1.6,2.4-2.4,3.6
		c0-2.9,0.9-5.4,1.5-7.9c0.7-2.8,0.5-5.3-3.1-6.1C329.2,204.6,330.6,210.6,323.5,209.6z M444.7,284.3c0.5-4.1-1.3-5.4-4.5-5.7
		c-17.8-1.6-35.5-3.7-53.4-4.8c-22.7-1.4-45.5-2-68.3-2.8c-6.2-0.2-8.7,1.7-9.4,7.7c-1.1,8.3-2.4,16.6-2.5,24.9
		c-0.3,45.3-0.3,90.6-0.4,135.9c0,1,0.3,2,0.4,3.2c7-2.1,13.6-4.5,20.4-6.2c20.9-5,35.3-17.9,43.4-37.4c5.2-12.5,8.6-25.8,13.3-38.6
		c3.5-9.5,6.9-19.2,12-28c8.3-14.4,21.7-23.2,36.7-29.8c2.1-0.9,4.1-1.9,6.1-2.9c-7.4-1.9-14.5-3.1-21.7-4.2
		c-0.4-0.1-0.7,0.1-1.9,0.3c5,1.4,9.4,2.7,13.8,4c-5.7,1.2-115.9-14-118.1-16.4c6.8-0.4,12.7-1.2,18.7-1.1
		c35.8,0.5,71.5,1.2,107.3,1.9C439.1,284.4,441.8,284.3,444.7,284.3z M72.3,299.3c-0.1,0.3-0.1,0.7-0.2,1c1.8,0.8,3.5,1.7,5.3,2.5
		c26.1,11.6,44,30.1,50.5,58.7c3.6,15.9,7.9,31.6,16.4,45.7c5.3,8.7,11,17.4,20.5,21.6c12.5,5.6,25.6,9.8,39,14.8
		c0.1-2.2,0.3-3.3,0.3-4.5c0-35.6,0.2-71.3-0.1-106.9c-0.1-17.6,1.1-35.2-3.1-52.6c-1.9-7.9-2.7-9-10.9-8.7
		c-27.3,1-54.5,1.9-81.8,3.4c-11.9,0.6-23.7,2.6-35.5,4c-3.3,0.4-5.8,1.7-5,6.1c1.4,0,2.8,0,4.1,0c12.3-0.3,24.6-0.6,36.9-0.8
		c26.2-0.5,52.4-0.9,78.7-1.2c3.4,0,6.9,1,10.4,1.6c0,0.7-0.1,1.5-0.1,2.2c-13,1.3-26,2.5-38.9,4c-13,1.4-26,3.1-39,4.7
		c-12.7,1.5-25.1,5.4-38,6.3c-0.1-0.5-0.2-0.9-0.2-1.4c3.6-0.9,7.2-1.8,10.8-2.7c0-0.2-0.1-0.5-0.1-0.7
		C85.6,297.3,78.9,298.3,72.3,299.3z M76.1,260.5c2,0,3.7,0,5.4,0c25.3-0.5,50.6-1,75.9-1.4c10.9-0.2,21.7-0.4,32.6-0.6
		c3.4,0,6.1-1.8,6.4-4.8c0.4-3.3-2.5-5-5.7-5.4c-1.4-0.2-2.9-0.3-4.4-0.3c-15.2,0.2-30.4,0.1-45.5,0.8c-19.3,0.8-38.6,2.2-57.8,3.6
		C77.4,252.8,76.7,254,76.1,260.5z M233,348.2c4.2-20.6-10-64.1-24.8-74.4c0.5,18.1,0.8,35.7,1.6,53.2c0.2,4.8,0.8,10,4.9,13.5
		C219.9,345,226.1,347.4,233,348.2z M435.7,259.8c-0.9-7-1.3-7.3-7.8-7.8c-2.8-0.2-5.5-0.5-8.3-0.7c-20.1-0.8-40.1-1.7-60.2-2.4
		c-9.8-0.4-19.5-0.6-29.3-0.7c-3.8-0.1-7.7-0.1-11.5,0.4c-2.8,0.4-4.2,2.6-4.1,5.5c0.2,2.9,2.2,4,4.8,4.3c0.9,0.1,1.9,0.1,2.8,0.1
		c36.6,0.4,73.1,0.9,109.7,1.3C433.1,259.8,434.4,259.8,435.7,259.8z M277.5,348.8c3.9-1.1,7.4-1.9,10.7-3.1
		c7.2-2.6,11.8-7.4,12.6-15.3c0.3-2.9,0.9-5.8,1-8.7c0.2-15.5,0.2-31,0.3-46.5c0-0.3-0.4-0.5-0.6-0.9
		C284.4,296,277.3,320.8,277.5,348.8z M234.2,286c0,1.9-0.1,3.3,0,4.7c2.7,30.9,5.4,61.7,8.1,92.6c0.4,4.7,0.9,9.5,2,14.1
		c1.4,5.8,6.2,9.5,11.3,9.5c5,0,8.8-3.1,10.6-9.1c0.8-2.5,1.2-5.2,1.5-7.8c2.9-29.1,5.7-58.2,8.5-87.4c0.5-4.8,0.7-9.7,1.1-15.4
		c-4,4.2-4.1,4.1-4.9,10.5c-0.8,6.7-1.7,13.4-2.3,20.1c-2,23.1-3.9,46.2-6,69.2c-0.3,3.6-1.2,7.4-2.7,10.7
		c-2.2,4.7-7.4,5.5-10.7,1.6c-2-2.4-3.3-5.8-3.6-8.9c-1.8-20-3.2-40.1-4.9-60.2c-0.9-10.5-2.8-21-2.8-31.6
		C239.3,293.4,237.5,290,234.2,286z M428.1,233.3c0.7-4.6-1.2-6.3-4.9-6.7c-2.1-0.2-4.2-0.2-6.3-0.5c-24.2-3.1-48.5-3.4-72.9-3.1
		c-1.6,0-3.7,1.3-4.8,2.6c-3,3.5-5.3,4.3-9.8,2.7c-1.3-0.5-2.8-1-4.1-0.8c-1.1,0.2-2,1.3-3,2c0.9,0.9,1.7,2.5,2.7,2.7
		c3.2,0.7,6.5,1.1,9.8,1.1c15.1,0.1,30.1-0.1,45.2-0.1c14.6,0,29.1,0.1,43.7,0.2C425.2,233.5,426.6,233.4,428.1,233.3z M420.7,209.5
		c-0.3-1.5-0.5-2.7-0.8-3.8c-2-7.4-2.4-7.7-9.9-8c-6.6-0.3-13.2-0.9-19.8-1.1c-12.3-0.4-24.6-0.8-36.9-0.9c-1.6,0-3.9,1.3-4.6,2.6
		c-1.4,2.9-2,6.2-3.1,9.8C370.8,208.6,395.6,209,420.7,209.5z M84.6,233.5c11.5,0,22.7,0,33.9,0c17.4,0,34.9,0,52.3-0.2
		c5-0.1,10-0.6,15-1.3c1.1-0.1,1.9-1.7,2.9-2.6c-1.4-0.7-2.8-1.6-4.3-2c-0.6-0.2-1.5,0.5-2.2,0.8c-3.8,1.9-6.6,0.7-9.5-2.2
		c-1.5-1.5-3.9-2.7-6-2.8c-5.5-0.4-11.1-0.3-16.6,0c-20.2,1.1-40.4,2.3-60.6,3.5C85.4,226.9,83.8,228.9,84.6,233.5z M92.1,209.4
		c24.2-0.4,48.1-0.9,72.6-1.3c-0.9-3.3-1.7-6.1-2.5-9c-0.7-2.6-2.2-3.5-4.9-3.4c-18.4,0.8-36.7,1.3-55.1,2.1
		C94,198.1,92.1,200.3,92.1,209.4z M411.3,182.7c-1.2-9.4-1.8-9.9-10.6-10.4c-5.8-0.3-11.6-1-17.4-1.1c-10.8-0.2-21.7-0.1-32.9-0.1
		c0.9,3.9,1.7,7.7,2.6,11.5C372.6,182.7,391.9,182.7,411.3,182.7z M100.1,182.4c0.5,0.2,0.7,0.4,1,0.4c18.4,0,36.8,0.1,55.2,0
		c0.8,0,2.2-1,2.4-1.8c1-3.2,1.6-6.6,2.6-11.1c-19,1-37.4,1.9-55.7,3.1c-1.3,0.1-2.9,1.7-3.6,3C100.9,178,100.6,180.3,100.1,182.4z
		 M264.7,53.3c-0.1,1.1-0.1,1.6-0.1,2.1c0.6,15.2,1.2,30.4,1.7,45.7c0.3,7-1.3,13.4-6.3,18.6c-3.9,4.1-7.9,4-10.9-0.6
		c-1.9-2.9-3.7-6.4-4-9.7c-0.8-9.9-1-19.8-0.9-29.7c0.1-7.1,1-14.3,1.5-21.4c0.3-4.4-0.8-5.5-5.1-4.9c0,0.4-0.1,0.7-0.1,1.1
		c1.5,10.3,3.9,20.6-1,30.7c-0.3,0.6-0.3,1.3-0.2,2c0.6,7.8,0.8,15.6,2.1,23.3c0.7,4.1,2.8,8.3,5.3,11.8c4.5,6.4,11.2,6.4,15.9,0.3
		c2.4-3.1,4.7-6.8,5.3-10.5c1.4-8,2.7-16.4,2.1-24.4c-0.8-11.5-3.3-22.9,0.3-34.7C268.3,53,266.7,53.2,264.7,53.3z M341.8,156.2
		c20.4,0,40.4,0,60.7,0c-0.3-1.5-0.5-2.8-0.8-4.1c-1.3-5.8-1.6-6-7.8-5.8c-10.7,0.3-21.4,0.3-32.1,0.8c-4.7,0.2-9.4,1.2-14,2.3
		C344.5,150.2,342.4,152.5,341.8,156.2z M171.5,156.1c-2.1-5.1-5.2-7.2-9.3-7.4c-15.9-0.8-31.7-1.4-47.6-1.8c-1.3,0-3.1,1.3-3.7,2.5
		c-1.1,2.1-1.4,4.6-2,6.7C129.8,156.1,150.2,156.1,171.5,156.1z M395.2,132.8c-0.6-2.2-1.2-3.8-1.5-5.5c-0.7-4.1-3-5.5-7-5
		c-5.9,0.7-11.9,0.9-17.8,1.6c-8.2,1-15.4,4-20.3,10.3C364,133.8,379.3,133.3,395.2,132.8z M116.8,133.4c1.3,0,2.6-0.1,3.8,0
		c14.7,0.9,29.7-2.4,44.8,3.2c-5.9-6-11.9-10.5-19.5-11.9c-6.3-1.2-12.8-1.7-19.3-2.2C118.6,122.1,116.5,124.5,116.8,133.4z
		 M338.3,454.8c13.8-0.1,26.6-3.6,37.9-11.3c22-15.1,35.3-36.3,40.7-62.2c2-9.7,2.7-19.6,4-29.5c-0.5-0.1-0.9-0.1-1.4-0.2
		c-0.2,0.6-0.4,1.2-0.5,1.8c-0.2,1.3-0.4,2.6-0.5,3.9c-1.6,16.3-4.6,32.3-11.8,47.1c-11.6,23.5-28.9,40.6-54.9,47.4
		C347.4,453,342.8,453.8,338.3,454.8z M126.8,104.4c21.3,2.5,36,14.5,45.7,33.3c-3.6-12.2-9.8-22.6-19.8-30.4
		c-5.5-4.3-11.6-7.3-18.6-8.2C130.4,98.7,127.8,99.8,126.8,104.4z M92.2,352.2c-0.4,0.1-0.9,0.1-1.3,0.2c1.4,10.7,2.1,21.6,4.4,32.1
		c5.7,26.1,19.4,47,42.2,61.5c9.7,6.1,25,10,34,8.9c-1.8-0.4-3-0.8-4.1-0.9c-21.4-2.5-38.3-12.9-51.4-29.9
		c-13-16.8-19.1-36.1-21.7-56.8C93.7,362.2,92.9,357.2,92.2,352.2z M338.4,139c1.8-3.2,3.6-6.4,5.5-9.5c7.2-12,17.1-20.3,31.2-23.1
		c1.7-0.3,3.4-0.7,4.9-1.4c1-0.4,2.5-1.8,2.4-2.2c-0.5-1.2-1.6-2.9-2.6-3.1c-2.4-0.3-5-0.4-7.3,0.4C353.2,106,343.7,120.7,338.4,139
		z M241.2,47.2c2.1,1.4,3.8,3.4,5.9,3.9c3,0.7,6.3,0.4,9.5,0.5c4.4,0.2,8.7,0.1,12.2-3.4c0.6-0.6,3.1-0.2,4.1,0.5
		c3.3,2.3,4.7,5.9,5,9.9c0.3,3.6,0.8,7.1,1.2,10.7c0.3,0,0.7,0,1,0c0.8-4.3,1.7-8.5,2.2-12.8c0.1-1.1-0.6-2.7-1.4-3.4
		c-2.8-2.6-5.7-5.1-8.9-7.2c-1.1-0.7-4-0.9-4.5-0.2c-3.3,4.8-8.1,3.8-12.6,3.8c-3.8,0-7.7,0.1-10.5-3.5c-0.5-0.7-2.2-1-3.2-0.8
		c-9.9,2.5-15.2,14.2-10.5,23.5C233.3,60.9,231.9,51.1,241.2,47.2z M360.1,439.7c12.9-4.7,23.7-12.2,31.7-23.4
		c11.5-16,16.1-34.3,18.8-53.4c0.6-4.6,1.3-9.2,1.9-13.8c-0.3-0.1-0.6-0.1-0.9-0.2c-0.3,1.3-0.7,2.7-1,4c-2.7,12.3-4.8,24.7-8,36.8
		c-5.4,20.5-17,36.6-36.3,46.4C364.2,437.3,362.2,438.6,360.1,439.7z M297,423.4c-27.3,9.7-54.6,10.7-81.9,0
		C232.2,434.6,280.7,436.6,297,423.4z M143.3,436.7c-0.4-0.3-0.7-0.6-1.1-0.8c-13.7-7.7-22.8-19.5-29.2-33.5
		c-6.8-14.7-9.5-30.5-11.6-46.4c-0.2-1.9-0.7-3.7-1-5.5c-0.4,0.1-0.8,0.2-1.2,0.3c1.3,8.7,2.4,17.5,4,26.1
		c3.2,17.4,9.2,33.7,21.7,46.8C130,429.3,135.9,434,143.3,436.7z M154,433.8c-3.4-3.8-7.4-8-11.1-12.5c-11.9-14.3-17.7-31.4-22.4-49
		c-1.5-5.6-2.8-11.3-4.3-16.9C120.7,385.7,128.6,414.3,154,433.8z M360.4,429.3c1.5-0.1,1.7-0.1,1.9-0.2c0.4-0.3,0.8-0.7,1.2-1
		c10.1-9.2,17.5-20.4,21.5-33.3c4.6-14.6,8.1-29.5,12-44.3c0.1-0.2-0.3-0.5-0.8-1.6c-1.5,5.6-2.7,10.3-4,15.1
		C386.2,387.6,380.5,411.4,360.4,429.3z M238.3,81.6c0.4-0.1,0.8-0.1,1.2-0.2c0.2-2.1,0.5-4.3,0.9-7.6c-6.2,1.1-11.8,1.9-17.2,3
		c-2.4,0.5-4.3,2.4-3.4,4.9c0.9,2.6,2.5,6.5,4.3,6.8c4.3,0.6,8.8-0.6,13.2-1c-0.1-0.7-0.2-1.4-0.2-2.1c-3.3,0.3-6.5,0.6-9.8,1
		c-2.2,0.3-4.4,0.4-4.9-2.5c-0.5-2.6-0.1-4.8,3-5.5c3.7-0.8,7.4-1.5,11.2-2.3C237.1,78.2,237.7,79.9,238.3,81.6z M273.1,87.6
		c4.5,0.5,8.5,1.3,12.4,1.2c3.3,0,6.5-7.8,4.7-10.6c-0.3-0.4-0.8-0.7-1.3-0.9c-5.8-2.2-11.8-3.2-18.4-2.4c0.2,1.5,0.4,2.7,0.6,4.1
		c3.8-2.8,12.1-2.7,15.3,0.2c1,0.9,1.6,2.8,1.5,4.1c-0.1,1.1-1.4,2.8-2.4,3.1c-1.5,0.3-3.3-0.4-4.9-0.8
		C278.2,85.1,275.6,83.8,273.1,87.6z M235.5,357.7c-1.8-2.6-17.1-9.8-24.7-11.6C210.5,350.8,228.9,359.4,235.5,357.7z M274.9,358.4
		c1.3,0.6,1.6,0.9,1.8,0.8c7.2-2.8,14.5-5.4,21.7-8.5c1.3-0.5,2-2.4,2.9-3.7c-0.3-0.3-0.6-0.6-1-0.9c-7.4,2.9-14.9,5.8-22.3,8.9
		C276.8,355.6,276.1,357.1,274.9,358.4z M401.6,358.2c-4.3,20.6-9.7,40.7-21,58.8C393.6,399.5,399.2,379.4,401.6,358.2z
		 M128.2,413.8c-9.2-16.2-14-33.9-17.9-51.9C112.4,380.5,117.3,398.1,128.2,413.8z M300.2,387.3c-0.1-0.5-0.3-1.1-0.4-1.6
		c-8.3,2.2-16.7,4.3-25,6.6c-0.7,0.2-1.2,1.2-1.8,1.8c0.2,0.4,0.5,0.8,0.7,1.2C282.4,392.3,291.8,391.4,300.2,387.3z M272.2,403.8
		c0.1,0.6,0.3,1.2,0.4,1.7c9.4-1.2,18.8-2.2,27.3-6.9c-0.1-0.4-0.2-0.9-0.3-1.3C290.4,399.4,281.3,401.6,272.2,403.8z M251.7,91.6
		c-0.3-0.2-0.6-0.3-1-0.5c-3.4,3.3-3.6,7.7-3,12.1c0.5,3.9,1.8,7.9,5.9,9.1c1.7,0.5,4.7-0.8,6-2.3c3-3.2,2.8-7.4,1.9-11.4
		c-0.4,1.4-0.3,2.8-0.4,4.2c-0.3,3.4-2.3,6.3-5.4,6.4c-2.1,0-4.9-2.3-6.1-4.3c-1.1-1.9-0.7-4.8-0.3-7.2
		C249.6,95.7,250.9,93.7,251.7,91.6z M273.3,381.9c0.1,0.5,0.2,0.9,0.3,1.4c9-1,18-2.3,26.1-6.7c-0.1-0.4-0.2-0.8-0.3-1.2
		C290.7,377.6,282,379.7,273.3,381.9z M210.2,408.4c3.3,4,22.4,9.2,27.3,7.2C228,413.1,219.5,410.9,210.2,408.4z M236.3,394.2
		c0.1-0.4,0.2-0.9,0.3-1.3c-8.3-2.2-16.6-4.5-24.9-6.7c-0.1,0.3-0.2,0.7-0.3,1C219.1,391.8,227.5,393.8,236.3,394.2z M271.7,415.9
		c3.8,2,25.7-3.5,28.3-7C290.4,411.2,281.4,413.5,271.7,415.9z M288.9,55.1c0.8,5.5,1.6,10.8,2.4,16.1c1.5-3.8,2.3-7.5,3.1-11.2
		C295.4,54.9,294.7,54.2,288.9,55.1z M216,55.1c1.1,5.6,2.2,10.6,3.2,15.7c0.3,0,0.6,0,0.8,0c0.7-5.4,1.4-10.8,2.2-16.5
		C220,54.6,218.3,54.8,216,55.1z M210.4,396.9c2.9,4,24.4,9.1,27.5,7C228.9,401.6,220.2,399.4,210.4,396.9z M235.5,381.5
		c-7.9-2.1-15.9-4.2-23.8-6.3C218.8,380.7,226.9,382.5,235.5,381.5z M235.6,374.9c0.1-0.6,0.3-1.2,0.4-1.9
		c-7.6-2.1-15.1-4.1-22.7-6.2c-0.1,0.5-0.3,1-0.4,1.5C220.4,370.6,228,372.7,235.6,374.9z M297.9,368.6c-0.1-0.5-0.3-0.9-0.4-1.4
		c-7.6,2-15.2,4.1-22.8,6.1c0.2,0.6,0.3,1.2,0.5,1.8C282.8,372.9,290.4,370.7,297.9,368.6z M407.3,330c0.1,0.5,0.2,1.1,0.3,1.6
		c3.1,0.8,6.1,1.7,9.2,2.5c0.3-0.4,0.6-0.8,0.9-1.2c-1.8-1.9-3.2-4.3-5.4-5.3C411.3,327,409,329.1,407.3,330z M93.8,332.4
		c0.3,0.5,0.6,1,1,1.5c3.1-0.7,6.1-1.5,9.2-2.2c0.1-0.4,0.2-0.8,0.3-1.2c-1.7-1.1-3.8-3.4-4.9-3C97.2,328.4,95.6,330.7,93.8,332.4z
		 M243,409.2c-0.3,0-0.7,0-1,0.1c0,5.8,0,11.6,0,17.4c0.3,0,0.7,0,1,0C243,420.8,243,415,243,409.2z M276.7,365.5
		c7.5-0.1,15-1.7,21.4-6.4C291,361.3,283.9,363.4,276.7,365.5z M211.6,358.4c-0.1,0.3-0.1,0.7-0.2,1c7,2.9,13.9,5.9,21.8,5.5
		C226.1,362.7,218.9,360.6,211.6,358.4z M196.2,452.7c0.2-0.5,0.4-1,0.7-1.5c-2.2-1.1-4.2-2.8-6.5-3.1c-1.3-0.2-2.8,1.9-4.3,2.9
		c0.2,0.4,0.4,0.7,0.5,1.1C189.8,452.3,193,452.5,196.2,452.7z M325.3,452.2c0.2-0.5,0.5-1.1,0.7-1.6c-1.8-0.8-3.7-2.5-5.4-2.3
		c-1.8,0.2-3.5,2-5.3,3.1c0.2,0.3,0.4,0.6,0.6,0.8C319.1,452.2,322.2,452.2,325.3,452.2z M261.3,413.1c-0.4,0-0.7-0.1-1.1-0.1
		c0,4.5,0,9,0,13.5c0.4,0,0.7,0,1.1,0C261.3,422.1,261.3,417.6,261.3,413.1z M266.3,42.8c-6.3-2.3-16.5-2.2-20.7,0
		C252.4,42.8,259,42.8,266.3,42.8z M255,413.4c-2.6,6.4-2.3,10.4,0,12.5C255,421.8,255,417.6,255,413.4z M248.7,413.2
		c-0.4,0-0.7,0-1.1,0.1c-0.7,4.3-1.5,8.7,1.1,12.8C248.7,421.8,248.7,417.5,248.7,413.2z M266.6,425.7c0.3,0,0.6,0,0.9,0.1
		c0-4.6,0-9.3,0-13.9c-0.3,0-0.6,0-0.9,0C266.6,416.5,266.6,421.1,266.6,425.7z M255.9,95.6c-3.6,3.5-3.5,5.2,0,8.2
		C255.9,100.7,255.9,98.2,255.9,95.6z"/>
</g>
</svg>
